<?xml version="1.0" standalone="no"?>
 <!DOCTYPE svg PUBLIC "-//W3C//DTD SVG 1.1//EN" 
 "http://www.w3.org/Graphics/SVG/1.1/DTD/svg11.dtd"> 
<svg
  xmlns:svg="http://www.w3.org/2000/svg"
  xmlns="http://www.w3.org/2000/svg"
  xmlns:xlink="http://www.w3.org/1999/xlink"
  version="1.1"
  width="297.0022mm" height="210.0072mm" viewBox="0.0000 0.0000 297.0022 210.0072">
<title>SVG Image created as Ni-Cd_Solar_Trickle_Charger-brd.svg date 2024/07/23 20:21:23 </title>
  <desc>Image generated by PCBNEW </desc>
<g style="fill:#000000; fill-opacity:1.0000;stroke:#000000; stroke-opacity:1.0000;
stroke-linecap:round; stroke-linejoin:round;"
 transform="translate(0 0) scale(1 1)">
</g>
<g style="fill:#000000; fill-opacity:1.0000; stroke:none;">
<circle cx="119.3800" cy="69.8500" r="0.8000" /> 
</g>
<g style="fill:#000000; fill-opacity:1.0000; stroke:none;">
<circle cx="119.3800" cy="62.2300" r="0.8000" /> 
</g>
<g style="fill:#000000; fill-opacity:1.0000; stroke:none;">
<circle cx="111.7600" cy="69.8500" r="0.8000" /> 
</g>
<g style="fill:#000000; fill-opacity:1.0000; stroke:none;">
<circle cx="111.7600" cy="62.2300" r="0.8000" /> 
</g>
<g style="fill:#000000; fill-opacity:1.0000; stroke:none;">
<circle cx="124.4600" cy="62.2300" r="0.8000" /> 
</g>
<g style="fill:#000000; fill-opacity:1.0000; stroke:none;">
<circle cx="124.4600" cy="64.7700" r="0.8000" /> 
</g>
<g style="fill:#000000; fill-opacity:1.0000; stroke:none;">
<circle cx="119.3900" cy="73.2100" r="0.8000" /> 
</g>
<g style="fill:#000000; fill-opacity:1.0000; stroke:none;">
<circle cx="116.8500" cy="73.2100" r="0.8000" /> 
</g>
<g style="fill:#000000; fill-opacity:1.0000; stroke:none;">
<circle cx="114.3100" cy="73.2100" r="0.8000" /> 
</g>
<g style="fill:#000000; fill-opacity:1.0000; stroke:none;">
<circle cx="106.7600" cy="53.3400" r="0.8000" /> 
</g>
<g style="fill:#000000; fill-opacity:1.0000; stroke:none;">
<circle cx="111.7600" cy="53.3400" r="0.8000" /> 
</g>
<g style="fill:#000000; fill-opacity:1.0000; stroke:none;">
<circle cx="115.5700" cy="62.2300" r="0.8000" /> 
</g>
<g style="fill:#000000; fill-opacity:1.0000; stroke:none;">
<circle cx="115.5700" cy="69.8500" r="0.8000" /> 
</g>
<g style="fill:#000000; fill-opacity:1.0000; stroke:none;">
<circle cx="106.6800" cy="69.8500" r="0.8000" /> 
</g>
<g style="fill:#000000; fill-opacity:1.0000; stroke:none;">
<circle cx="106.6800" cy="62.2300" r="0.8000" /> 
</g>
<g style="fill:#000000; fill-opacity:1.0000; stroke:none;">
<circle cx="118.1100" cy="53.3400" r="0.8000" /> 
</g>
<g style="fill:#000000; fill-opacity:1.0000; stroke:none;">
<circle cx="123.1100" cy="53.3400" r="0.8000" /> 
</g>
<g style="fill:none; 
stroke:#000000; stroke-width:0.2540; stroke-opacity:1; 
stroke-linecap:round; stroke-linejoin:round;">
<path d="M106.6800 53.4200
L106.7600 53.3400
" />
<path d="M106.6800 62.2300
L106.6800 53.4200
" />
<path d="M104.9600 73.2100
L114.3100 73.2100
" />
<path d="M105.4100 66.0400
L104.1400 67.3100
" />
<path d="M109.2200 55.8800
L109.2200 64.7700
" />
<path d="M111.7600 53.3400
L109.2200 55.8800
" />
<path d="M107.9500 66.0400
L105.4100 66.0400
" />
<path d="M104.1400 72.3900
L104.9600 73.2100
" />
<path d="M104.1400 67.3100
L104.1400 72.3900
" />
<path d="M109.2200 64.7700
L107.9500 66.0400
" />
<path d="M124.4600 62.2300
L124.4600 54.6900
" />
<path d="M124.4600 54.6900
L123.1100 53.3400
" />
<path d="M124.4600 62.2300
L119.3800 62.2300
" />
<path d="M123.1100 53.3400
L123.1900 53.3400
" />
<path d="M115.5700 71.9300
L116.8500 73.2100
" />
<path d="M124.4600 64.7700
L120.6500 64.7700
" />
<path d="M115.5700 69.8500
L115.5700 71.9300
" />
<path d="M120.6500 64.7700
L115.5700 69.8500
" />
<path d="M106.6800 69.8500
L111.7600 69.8500
" />
<path d="M115.5700 62.2300
L115.5700 55.8800
" />
<path d="M111.7600 62.2300
L115.5700 62.2300
" />
<path d="M115.5700 55.8800
L118.1100 53.3400
" />
<path d="M119.3900 73.2100
L119.3900 69.8600
" />
<path d="M119.3900 69.8600
L119.3800 69.8500
" />
</g>
<g style="fill:#FFFFFF; fill-opacity:1.0000; stroke:none;">
<circle cx="119.3800" cy="69.8500" r="0.4000" /> 
</g>
<g style="fill:#FFFFFF; fill-opacity:1.0000; stroke:none;">
<circle cx="119.3800" cy="62.2300" r="0.4000" /> 
</g>
<g style="fill:#FFFFFF; fill-opacity:1.0000; stroke:none;">
<circle cx="111.7600" cy="69.8500" r="0.4000" /> 
</g>
<g style="fill:#FFFFFF; fill-opacity:1.0000; stroke:none;">
<circle cx="111.7600" cy="62.2300" r="0.4000" /> 
</g>
<g style="fill:#FFFFFF; fill-opacity:1.0000; stroke:none;">
<circle cx="124.4600" cy="62.2300" r="0.4000" /> 
</g>
<g style="fill:#FFFFFF; fill-opacity:1.0000; stroke:none;">
<circle cx="124.4600" cy="64.7700" r="0.4000" /> 
</g>
<g style="fill:#FFFFFF; fill-opacity:1.0000; stroke:none;">
<circle cx="119.3900" cy="73.2100" r="0.4000" /> 
</g>
<g style="fill:#FFFFFF; fill-opacity:1.0000; stroke:none;">
<circle cx="116.8500" cy="73.2100" r="0.4000" /> 
</g>
<g style="fill:#FFFFFF; fill-opacity:1.0000; stroke:none;">
<circle cx="114.3100" cy="73.2100" r="0.4000" /> 
</g>
<g style="fill:#FFFFFF; fill-opacity:1.0000; stroke:none;">
<circle cx="106.7600" cy="53.3400" r="0.4000" /> 
</g>
<g style="fill:#FFFFFF; fill-opacity:1.0000; stroke:none;">
<circle cx="111.7600" cy="53.3400" r="0.4000" /> 
</g>
<g style="fill:#FFFFFF; fill-opacity:1.0000; stroke:none;">
<circle cx="115.5700" cy="62.2300" r="0.4000" /> 
</g>
<g style="fill:#FFFFFF; fill-opacity:1.0000; stroke:none;">
<circle cx="115.5700" cy="69.8500" r="0.4000" /> 
</g>
<g style="fill:#FFFFFF; fill-opacity:1.0000; stroke:none;">
<circle cx="106.6800" cy="69.8500" r="0.4000" /> 
</g>
<g style="fill:#FFFFFF; fill-opacity:1.0000; stroke:none;">
<circle cx="106.6800" cy="62.2300" r="0.4000" /> 
</g>
<g style="fill:#FFFFFF; fill-opacity:1.0000; stroke:none;">
<circle cx="118.1100" cy="53.3400" r="0.4000" /> 
</g>
<g style="fill:#FFFFFF; fill-opacity:1.0000; stroke:none;">
<circle cx="123.1100" cy="53.3400" r="0.4000" /> 
</g>
<g style="fill:#FFFFFF; fill-opacity:1.0000; stroke:none;">
<circle cx="119.3800" cy="69.8500" r="0.4000" /> 
</g>
<g style="fill:#FFFFFF; fill-opacity:1.0000; stroke:none;">
<circle cx="119.3800" cy="62.2300" r="0.4000" /> 
</g>
<g style="fill:#FFFFFF; fill-opacity:1.0000; stroke:none;">
<circle cx="111.7600" cy="69.8500" r="0.4000" /> 
</g>
<g style="fill:#FFFFFF; fill-opacity:1.0000; stroke:none;">
<circle cx="111.7600" cy="62.2300" r="0.4000" /> 
</g>
<g style="fill:#FFFFFF; fill-opacity:1.0000; stroke:none;">
<circle cx="124.4600" cy="62.2300" r="0.4000" /> 
</g>
<g style="fill:#FFFFFF; fill-opacity:1.0000; stroke:none;">
<circle cx="124.4600" cy="64.7700" r="0.4000" /> 
</g>
<g style="fill:#FFFFFF; fill-opacity:1.0000; stroke:none;">
<circle cx="119.3900" cy="73.2100" r="0.4000" /> 
</g>
<g style="fill:#FFFFFF; fill-opacity:1.0000; stroke:none;">
<circle cx="116.8500" cy="73.2100" r="0.4000" /> 
</g>
<g style="fill:#FFFFFF; fill-opacity:1.0000; stroke:none;">
<circle cx="114.3100" cy="73.2100" r="0.4000" /> 
</g>
<g style="fill:#FFFFFF; fill-opacity:1.0000; stroke:none;">
<circle cx="106.7600" cy="53.3400" r="0.4000" /> 
</g>
<g style="fill:#FFFFFF; fill-opacity:1.0000; stroke:none;">
<circle cx="111.7600" cy="53.3400" r="0.4000" /> 
</g>
<g style="fill:#FFFFFF; fill-opacity:1.0000; stroke:none;">
<circle cx="115.5700" cy="62.2300" r="0.4000" /> 
</g>
<g style="fill:#FFFFFF; fill-opacity:1.0000; stroke:none;">
<circle cx="115.5700" cy="69.8500" r="0.4000" /> 
</g>
<g style="fill:#FFFFFF; fill-opacity:1.0000; stroke:none;">
<circle cx="106.6800" cy="69.8500" r="0.4000" /> 
</g>
<g style="fill:#FFFFFF; fill-opacity:1.0000; stroke:none;">
<circle cx="106.6800" cy="62.2300" r="0.4000" /> 
</g>
<g style="fill:#FFFFFF; fill-opacity:1.0000; stroke:none;">
<circle cx="118.1100" cy="53.3400" r="0.4000" /> 
</g>
<g style="fill:#FFFFFF; fill-opacity:1.0000; stroke:none;">
<circle cx="123.1100" cy="53.3400" r="0.4000" /> 
</g>
<g style="fill:#000000; fill-opacity:1.0000; stroke:none;">
<circle cx="119.3800" cy="69.8500" r="0.8000" /> 
</g>
<g style="fill:#000000; fill-opacity:1.0000; stroke:none;">
<circle cx="119.3800" cy="62.2300" r="0.8000" /> 
</g>
<g style="fill:#000000; fill-opacity:1.0000; stroke:none;">
<circle cx="111.7600" cy="69.8500" r="0.8000" /> 
</g>
<g style="fill:#000000; fill-opacity:1.0000; stroke:none;">
<circle cx="111.7600" cy="62.2300" r="0.8000" /> 
</g>
<g style="fill:#000000; fill-opacity:1.0000; stroke:none;">
<circle cx="124.4600" cy="62.2300" r="0.8000" /> 
</g>
<g style="fill:#000000; fill-opacity:1.0000; stroke:none;">
<circle cx="124.4600" cy="64.7700" r="0.8000" /> 
</g>
<g style="fill:#000000; fill-opacity:1.0000; stroke:none;">
<circle cx="119.3900" cy="73.2100" r="0.8000" /> 
</g>
<g style="fill:#000000; fill-opacity:1.0000; stroke:none;">
<circle cx="116.8500" cy="73.2100" r="0.8000" /> 
</g>
<g style="fill:#000000; fill-opacity:1.0000; stroke:none;">
<circle cx="114.3100" cy="73.2100" r="0.8000" /> 
</g>
<g style="fill:#000000; fill-opacity:1.0000; stroke:none;">
<circle cx="106.7600" cy="53.3400" r="0.8000" /> 
</g>
<g style="fill:#000000; fill-opacity:1.0000; stroke:none;">
<circle cx="111.7600" cy="53.3400" r="0.8000" /> 
</g>
<g style="fill:#000000; fill-opacity:1.0000; stroke:none;">
<circle cx="115.5700" cy="62.2300" r="0.8000" /> 
</g>
<g style="fill:#000000; fill-opacity:1.0000; stroke:none;">
<circle cx="115.5700" cy="69.8500" r="0.8000" /> 
</g>
<g style="fill:#000000; fill-opacity:1.0000; stroke:none;">
<circle cx="106.6800" cy="69.8500" r="0.8000" /> 
</g>
<g style="fill:#000000; fill-opacity:1.0000; stroke:none;">
<circle cx="106.6800" cy="62.2300" r="0.8000" /> 
</g>
<g style="fill:#000000; fill-opacity:1.0000; stroke:none;">
<circle cx="118.1100" cy="53.3400" r="0.8000" /> 
</g>
<g style="fill:#000000; fill-opacity:1.0000; stroke:none;">
<circle cx="123.1100" cy="53.3400" r="0.8000" /> 
</g>
<g style="fill:#FFFFFF; fill-opacity:1.0000; stroke:none;">
<circle cx="119.3800" cy="69.8500" r="0.4000" /> 
</g>
<g style="fill:#FFFFFF; fill-opacity:1.0000; stroke:none;">
<circle cx="119.3800" cy="62.2300" r="0.4000" /> 
</g>
<g style="fill:#FFFFFF; fill-opacity:1.0000; stroke:none;">
<circle cx="111.7600" cy="69.8500" r="0.4000" /> 
</g>
<g style="fill:#FFFFFF; fill-opacity:1.0000; stroke:none;">
<circle cx="111.7600" cy="62.2300" r="0.4000" /> 
</g>
<g style="fill:#FFFFFF; fill-opacity:1.0000; stroke:none;">
<circle cx="124.4600" cy="62.2300" r="0.4000" /> 
</g>
<g style="fill:#FFFFFF; fill-opacity:1.0000; stroke:none;">
<circle cx="124.4600" cy="64.7700" r="0.4000" /> 
</g>
<g style="fill:#FFFFFF; fill-opacity:1.0000; stroke:none;">
<circle cx="119.3900" cy="73.2100" r="0.4000" /> 
</g>
<g style="fill:#FFFFFF; fill-opacity:1.0000; stroke:none;">
<circle cx="116.8500" cy="73.2100" r="0.4000" /> 
</g>
<g style="fill:#FFFFFF; fill-opacity:1.0000; stroke:none;">
<circle cx="114.3100" cy="73.2100" r="0.4000" /> 
</g>
<g style="fill:#FFFFFF; fill-opacity:1.0000; stroke:none;">
<circle cx="106.7600" cy="53.3400" r="0.4000" /> 
</g>
<g style="fill:#FFFFFF; fill-opacity:1.0000; stroke:none;">
<circle cx="111.7600" cy="53.3400" r="0.4000" /> 
</g>
<g style="fill:#FFFFFF; fill-opacity:1.0000; stroke:none;">
<circle cx="115.5700" cy="62.2300" r="0.4000" /> 
</g>
<g style="fill:#FFFFFF; fill-opacity:1.0000; stroke:none;">
<circle cx="115.5700" cy="69.8500" r="0.4000" /> 
</g>
<g style="fill:#FFFFFF; fill-opacity:1.0000; stroke:none;">
<circle cx="106.6800" cy="69.8500" r="0.4000" /> 
</g>
<g style="fill:#FFFFFF; fill-opacity:1.0000; stroke:none;">
<circle cx="106.6800" cy="62.2300" r="0.4000" /> 
</g>
<g style="fill:#FFFFFF; fill-opacity:1.0000; stroke:none;">
<circle cx="118.1100" cy="53.3400" r="0.4000" /> 
</g>
<g style="fill:#FFFFFF; fill-opacity:1.0000; stroke:none;">
<circle cx="123.1100" cy="53.3400" r="0.4000" /> 
</g>
<g style="fill:none; 
stroke:#000000; stroke-width:0.1500; stroke-opacity:1; 
stroke-linecap:round; stroke-linejoin:round;">
<g transform="rotate(-90.000000 117.0100 66.0400)">
<text x="117.0100" y="66.5400"
textLength="2.2024" font-size="1.3333" lengthAdjust="spacingAndGlyphs"
text-anchor="middle" opacity="0">R1</text>
</g>
<g class="stroked-text"><desc>R1</desc>
<path d="M117.4648 66.2067
L116.9886 66.5400
" />
<path d="M117.4648 66.7781
L116.4648 66.7781
" />
<path d="M116.4648 66.7781
L116.4648 66.3971
" />
<path d="M116.4648 66.3971
L116.5124 66.3019
" />
<path d="M116.5124 66.3019
L116.5601 66.2543
" />
<path d="M116.5601 66.2543
L116.6553 66.2067
" />
<path d="M116.6553 66.2067
L116.7982 66.2067
" />
<path d="M116.7982 66.2067
L116.8934 66.2543
" />
<path d="M116.8934 66.2543
L116.9410 66.3019
" />
<path d="M116.9410 66.3019
L116.9886 66.3971
" />
<path d="M116.9886 66.3971
L116.9886 66.7781
" />
<path d="M117.4648 65.2543
L117.4648 65.8257
" />
<path d="M117.4648 65.5400
L116.4648 65.5400
" />
<path d="M116.4648 65.5400
L116.6077 65.6352
" />
<path d="M116.6077 65.6352
L116.7029 65.7305
" />
<path d="M116.7029 65.7305
L116.7505 65.8257
" />
</g><g transform="rotate(-90.000000 109.2900 66.0400)">
<text x="109.2900" y="66.5400"
textLength="2.2024" font-size="1.3333" lengthAdjust="spacingAndGlyphs"
text-anchor="middle" opacity="0">D2</text>
</g>
<g class="stroked-text"><desc>D2</desc>
<path d="M109.7448 66.7781
L108.7448 66.7781
" />
<path d="M108.7448 66.7781
L108.7448 66.5400
" />
<path d="M108.7448 66.5400
L108.7924 66.3971
" />
<path d="M108.7924 66.3971
L108.8877 66.3019
" />
<path d="M108.8877 66.3019
L108.9829 66.2543
" />
<path d="M108.9829 66.2543
L109.1734 66.2067
" />
<path d="M109.1734 66.2067
L109.3162 66.2067
" />
<path d="M109.3162 66.2067
L109.5067 66.2543
" />
<path d="M109.5067 66.2543
L109.6020 66.3019
" />
<path d="M109.6020 66.3019
L109.6972 66.3971
" />
<path d="M109.6972 66.3971
L109.7448 66.5400
" />
<path d="M109.7448 66.5400
L109.7448 66.7781
" />
<path d="M108.8401 65.8257
L108.7924 65.7781
" />
<path d="M108.7924 65.7781
L108.7448 65.6829
" />
<path d="M108.7448 65.6829
L108.7448 65.4448
" />
<path d="M108.7448 65.4448
L108.7924 65.3495
" />
<path d="M108.7924 65.3495
L108.8401 65.3019
" />
<path d="M108.8401 65.3019
L108.9353 65.2543
" />
<path d="M108.9353 65.2543
L109.0305 65.2543
" />
<path d="M109.0305 65.2543
L109.1734 65.3019
" />
<path d="M109.1734 65.3019
L109.7448 65.8733
" />
<path d="M109.7448 65.8733
L109.7448 65.2543
" />
</g><g transform="rotate(-90.000000 109.8600 69.8500)">
<text x="109.8600" y="70.3500"
textLength="1.2500" font-size="1.3333" lengthAdjust="spacingAndGlyphs"
text-anchor="middle" opacity="0">K</text>
</g>
<g class="stroked-text"><desc>K</desc>
<path d="M110.3148 70.1119
L109.3148 70.1119
" />
<path d="M110.3148 69.5405
L109.7434 69.9690
" />
<path d="M109.3148 69.5405
L109.8862 70.1119
" />
</g><g transform="rotate(-90.000000 128.4200 63.5000)">
<text x="128.4200" y="64.0000"
textLength="2.2024" font-size="1.3333" lengthAdjust="spacingAndGlyphs"
text-anchor="middle" opacity="0">D1</text>
</g>
<g class="stroked-text"><desc>D1</desc>
<path d="M128.8748 64.2381
L127.8748 64.2381
" />
<path d="M127.8748 64.2381
L127.8748 64.0000
" />
<path d="M127.8748 64.0000
L127.9224 63.8571
" />
<path d="M127.9224 63.8571
L128.0177 63.7619
" />
<path d="M128.0177 63.7619
L128.1129 63.7143
" />
<path d="M128.1129 63.7143
L128.3034 63.6667
" />
<path d="M128.3034 63.6667
L128.4462 63.6667
" />
<path d="M128.4462 63.6667
L128.6367 63.7143
" />
<path d="M128.6367 63.7143
L128.7320 63.7619
" />
<path d="M128.7320 63.7619
L128.8272 63.8571
" />
<path d="M128.8272 63.8571
L128.8748 64.0000
" />
<path d="M128.8748 64.0000
L128.8748 64.2381
" />
<path d="M128.8748 62.7143
L128.8748 63.2857
" />
<path d="M128.8748 63.0000
L127.8748 63.0000
" />
<path d="M127.8748 63.0000
L128.0177 63.0952
" />
<path d="M128.0177 63.0952
L128.1129 63.1905
" />
<path d="M128.1129 63.1905
L128.1605 63.2857
" />
</g><text x="116.8500" y="77.2700"
textLength="2.2500" font-size="1.3333" lengthAdjust="spacingAndGlyphs"
text-anchor="middle" opacity="0">Q2</text>
<g class="stroked-text"><desc>Q2</desc>
<path d="M116.7548 77.3201
L116.6595 77.2724
" />
<path d="M116.6595 77.2724
L116.5643 77.1772
" />
<path d="M116.5643 77.1772
L116.4214 77.0343
" />
<path d="M116.4214 77.0343
L116.3262 76.9867
" />
<path d="M116.3262 76.9867
L116.2310 76.9867
" />
<path d="M116.2786 77.2248
L116.1833 77.1772
" />
<path d="M116.1833 77.1772
L116.0881 77.0820
" />
<path d="M116.0881 77.0820
L116.0405 76.8915
" />
<path d="M116.0405 76.8915
L116.0405 76.5582
" />
<path d="M116.0405 76.5582
L116.0881 76.3677
" />
<path d="M116.0881 76.3677
L116.1833 76.2724
" />
<path d="M116.1833 76.2724
L116.2786 76.2248
" />
<path d="M116.2786 76.2248
L116.4690 76.2248
" />
<path d="M116.4690 76.2248
L116.5643 76.2724
" />
<path d="M116.5643 76.2724
L116.6595 76.3677
" />
<path d="M116.6595 76.3677
L116.7071 76.5582
" />
<path d="M116.7071 76.5582
L116.7071 76.8915
" />
<path d="M116.7071 76.8915
L116.6595 77.0820
" />
<path d="M116.6595 77.0820
L116.5643 77.1772
" />
<path d="M116.5643 77.1772
L116.4690 77.2248
" />
<path d="M116.4690 77.2248
L116.2786 77.2248
" />
<path d="M117.0881 76.3201
L117.1357 76.2724
" />
<path d="M117.1357 76.2724
L117.2310 76.2248
" />
<path d="M117.2310 76.2248
L117.4690 76.2248
" />
<path d="M117.4690 76.2248
L117.5643 76.2724
" />
<path d="M117.5643 76.2724
L117.6119 76.3201
" />
<path d="M117.6119 76.3201
L117.6595 76.4153
" />
<path d="M117.6595 76.4153
L117.6595 76.5105
" />
<path d="M117.6595 76.5105
L117.6119 76.6534
" />
<path d="M117.6119 76.6534
L117.0405 77.2248
" />
<path d="M117.0405 77.2248
L117.6595 77.2248
" />
</g><text x="104.8400" y="46.8500"
textLength="9.2500" font-size="1.3333" lengthAdjust="spacingAndGlyphs"
text-anchor="middle" opacity="0">Cells_Pack1</text>
<g class="stroked-text"><desc>Cells_Pack1</desc>
<path d="M101.1495 46.7096
L101.1019 46.7572
" />
<path d="M101.1019 46.7572
L100.9590 46.8048
" />
<path d="M100.9590 46.8048
L100.8638 46.8048
" />
<path d="M100.8638 46.8048
L100.7210 46.7572
" />
<path d="M100.7210 46.7572
L100.6257 46.6620
" />
<path d="M100.6257 46.6620
L100.5781 46.5667
" />
<path d="M100.5781 46.5667
L100.5305 46.3762
" />
<path d="M100.5305 46.3762
L100.5305 46.2334
" />
<path d="M100.5305 46.2334
L100.5781 46.0429
" />
<path d="M100.5781 46.0429
L100.6257 45.9477
" />
<path d="M100.6257 45.9477
L100.7210 45.8524
" />
<path d="M100.7210 45.8524
L100.8638 45.8048
" />
<path d="M100.8638 45.8048
L100.9590 45.8048
" />
<path d="M100.9590 45.8048
L101.1019 45.8524
" />
<path d="M101.1019 45.8524
L101.1495 45.9001
" />
<path d="M101.9590 46.7572
L101.8638 46.8048
" />
<path d="M101.8638 46.8048
L101.6733 46.8048
" />
<path d="M101.6733 46.8048
L101.5781 46.7572
" />
<path d="M101.5781 46.7572
L101.5305 46.6620
" />
<path d="M101.5305 46.6620
L101.5305 46.2810
" />
<path d="M101.5305 46.2810
L101.5781 46.1858
" />
<path d="M101.5781 46.1858
L101.6733 46.1382
" />
<path d="M101.6733 46.1382
L101.8638 46.1382
" />
<path d="M101.8638 46.1382
L101.9590 46.1858
" />
<path d="M101.9590 46.1858
L102.0067 46.2810
" />
<path d="M102.0067 46.2810
L102.0067 46.3762
" />
<path d="M102.0067 46.3762
L101.5305 46.4715
" />
<path d="M102.5781 46.8048
L102.4829 46.7572
" />
<path d="M102.4829 46.7572
L102.4352 46.6620
" />
<path d="M102.4352 46.6620
L102.4352 45.8048
" />
<path d="M103.1019 46.8048
L103.0067 46.7572
" />
<path d="M103.0067 46.7572
L102.9590 46.6620
" />
<path d="M102.9590 46.6620
L102.9590 45.8048
" />
<path d="M103.4352 46.7572
L103.5305 46.8048
" />
<path d="M103.5305 46.8048
L103.7210 46.8048
" />
<path d="M103.7210 46.8048
L103.8162 46.7572
" />
<path d="M103.8162 46.7572
L103.8638 46.6620
" />
<path d="M103.8638 46.6620
L103.8638 46.6143
" />
<path d="M103.8638 46.6143
L103.8162 46.5191
" />
<path d="M103.8162 46.5191
L103.7210 46.4715
" />
<path d="M103.7210 46.4715
L103.5781 46.4715
" />
<path d="M103.5781 46.4715
L103.4829 46.4239
" />
<path d="M103.4829 46.4239
L103.4352 46.3286
" />
<path d="M103.4352 46.3286
L103.4352 46.2810
" />
<path d="M103.4352 46.2810
L103.4829 46.1858
" />
<path d="M103.4829 46.1858
L103.5781 46.1382
" />
<path d="M103.5781 46.1382
L103.7210 46.1382
" />
<path d="M103.7210 46.1382
L103.8162 46.1858
" />
<path d="M104.0543 46.9001
L104.8162 46.9001
" />
<path d="M105.0543 46.8048
L105.0543 45.8048
" />
<path d="M105.0543 45.8048
L105.4352 45.8048
" />
<path d="M105.4352 45.8048
L105.5305 45.8524
" />
<path d="M105.5305 45.8524
L105.5781 45.9001
" />
<path d="M105.5781 45.9001
L105.6257 45.9953
" />
<path d="M105.6257 45.9953
L105.6257 46.1382
" />
<path d="M105.6257 46.1382
L105.5781 46.2334
" />
<path d="M105.5781 46.2334
L105.5305 46.2810
" />
<path d="M105.5305 46.2810
L105.4352 46.3286
" />
<path d="M105.4352 46.3286
L105.0543 46.3286
" />
<path d="M106.4829 46.8048
L106.4829 46.2810
" />
<path d="M106.4829 46.2810
L106.4352 46.1858
" />
<path d="M106.4352 46.1858
L106.3400 46.1382
" />
<path d="M106.3400 46.1382
L106.1495 46.1382
" />
<path d="M106.1495 46.1382
L106.0543 46.1858
" />
<path d="M106.4829 46.7572
L106.3876 46.8048
" />
<path d="M106.3876 46.8048
L106.1495 46.8048
" />
<path d="M106.1495 46.8048
L106.0543 46.7572
" />
<path d="M106.0543 46.7572
L106.0067 46.6620
" />
<path d="M106.0067 46.6620
L106.0067 46.5667
" />
<path d="M106.0067 46.5667
L106.0543 46.4715
" />
<path d="M106.0543 46.4715
L106.1495 46.4239
" />
<path d="M106.1495 46.4239
L106.3876 46.4239
" />
<path d="M106.3876 46.4239
L106.4829 46.3762
" />
<path d="M107.3876 46.7572
L107.2924 46.8048
" />
<path d="M107.2924 46.8048
L107.1019 46.8048
" />
<path d="M107.1019 46.8048
L107.0067 46.7572
" />
<path d="M107.0067 46.7572
L106.9590 46.7096
" />
<path d="M106.9590 46.7096
L106.9114 46.6143
" />
<path d="M106.9114 46.6143
L106.9114 46.3286
" />
<path d="M106.9114 46.3286
L106.9590 46.2334
" />
<path d="M106.9590 46.2334
L107.0067 46.1858
" />
<path d="M107.0067 46.1858
L107.1019 46.1382
" />
<path d="M107.1019 46.1382
L107.2924 46.1382
" />
<path d="M107.2924 46.1382
L107.3876 46.1858
" />
<path d="M107.8162 46.8048
L107.8162 45.8048
" />
<path d="M107.9114 46.4239
L108.1971 46.8048
" />
<path d="M108.1971 46.1382
L107.8162 46.5191
" />
<path d="M109.1495 46.8048
L108.5781 46.8048
" />
<path d="M108.8638 46.8048
L108.8638 45.8048
" />
<path d="M108.8638 45.8048
L108.7686 45.9477
" />
<path d="M108.7686 45.9477
L108.6733 46.0429
" />
<path d="M108.6733 46.0429
L108.5781 46.0905
" />
</g><g transform="rotate(-90.000000 117.9400 66.0400)">
<text x="117.9400" y="66.5400"
textLength="2.2024" font-size="1.3333" lengthAdjust="spacingAndGlyphs"
text-anchor="middle" opacity="0">R2</text>
</g>
<g class="stroked-text"><desc>R2</desc>
<path d="M118.3948 66.2067
L117.9186 66.5400
" />
<path d="M118.3948 66.7781
L117.3948 66.7781
" />
<path d="M117.3948 66.7781
L117.3948 66.3971
" />
<path d="M117.3948 66.3971
L117.4424 66.3019
" />
<path d="M117.4424 66.3019
L117.4901 66.2543
" />
<path d="M117.4901 66.2543
L117.5853 66.2067
" />
<path d="M117.5853 66.2067
L117.7282 66.2067
" />
<path d="M117.7282 66.2067
L117.8234 66.2543
" />
<path d="M117.8234 66.2543
L117.8710 66.3019
" />
<path d="M117.8710 66.3019
L117.9186 66.3971
" />
<path d="M117.9186 66.3971
L117.9186 66.7781
" />
<path d="M117.4901 65.8257
L117.4424 65.7781
" />
<path d="M117.4424 65.7781
L117.3948 65.6829
" />
<path d="M117.3948 65.6829
L117.3948 65.4448
" />
<path d="M117.3948 65.4448
L117.4424 65.3495
" />
<path d="M117.4424 65.3495
L117.4901 65.3019
" />
<path d="M117.4901 65.3019
L117.5853 65.2543
" />
<path d="M117.5853 65.2543
L117.6805 65.2543
" />
<path d="M117.6805 65.2543
L117.8234 65.3019
" />
<path d="M117.8234 65.3019
L118.3948 65.8733
" />
<path d="M118.3948 65.8733
L118.3948 65.2543
" />
</g><g transform="rotate(-90.000000 104.3100 66.0400)">
<text x="104.3100" y="66.5400"
textLength="7.3452" font-size="1.3333" lengthAdjust="spacingAndGlyphs"
text-anchor="middle" opacity="0">R_Sense1</text>
</g>
<g class="stroked-text"><desc>R_Sense1</desc>
<path d="M104.7648 68.7781
L104.2886 69.1114
" />
<path d="M104.7648 69.3495
L103.7648 69.3495
" />
<path d="M103.7648 69.3495
L103.7648 68.9686
" />
<path d="M103.7648 68.9686
L103.8124 68.8733
" />
<path d="M103.8124 68.8733
L103.8601 68.8257
" />
<path d="M103.8601 68.8257
L103.9553 68.7781
" />
<path d="M103.9553 68.7781
L104.0982 68.7781
" />
<path d="M104.0982 68.7781
L104.1934 68.8257
" />
<path d="M104.1934 68.8257
L104.2410 68.8733
" />
<path d="M104.2410 68.8733
L104.2886 68.9686
" />
<path d="M104.2886 68.9686
L104.2886 69.3495
" />
<path d="M104.8601 68.5876
L104.8601 67.8257
" />
<path d="M104.7172 67.6352
L104.7648 67.4924
" />
<path d="M104.7648 67.4924
L104.7648 67.2543
" />
<path d="M104.7648 67.2543
L104.7172 67.1590
" />
<path d="M104.7172 67.1590
L104.6696 67.1114
" />
<path d="M104.6696 67.1114
L104.5743 67.0638
" />
<path d="M104.5743 67.0638
L104.4791 67.0638
" />
<path d="M104.4791 67.0638
L104.3839 67.1114
" />
<path d="M104.3839 67.1114
L104.3362 67.1590
" />
<path d="M104.3362 67.1590
L104.2886 67.2543
" />
<path d="M104.2886 67.2543
L104.2410 67.4448
" />
<path d="M104.2410 67.4448
L104.1934 67.5400
" />
<path d="M104.1934 67.5400
L104.1458 67.5876
" />
<path d="M104.1458 67.5876
L104.0505 67.6352
" />
<path d="M104.0505 67.6352
L103.9553 67.6352
" />
<path d="M103.9553 67.6352
L103.8601 67.5876
" />
<path d="M103.8601 67.5876
L103.8124 67.5400
" />
<path d="M103.8124 67.5400
L103.7648 67.4448
" />
<path d="M103.7648 67.4448
L103.7648 67.2067
" />
<path d="M103.7648 67.2067
L103.8124 67.0638
" />
<path d="M104.7172 66.2543
L104.7648 66.3495
" />
<path d="M104.7648 66.3495
L104.7648 66.5400
" />
<path d="M104.7648 66.5400
L104.7172 66.6352
" />
<path d="M104.7172 66.6352
L104.6220 66.6829
" />
<path d="M104.6220 66.6829
L104.2410 66.6829
" />
<path d="M104.2410 66.6829
L104.1458 66.6352
" />
<path d="M104.1458 66.6352
L104.0982 66.5400
" />
<path d="M104.0982 66.5400
L104.0982 66.3495
" />
<path d="M104.0982 66.3495
L104.1458 66.2543
" />
<path d="M104.1458 66.2543
L104.2410 66.2067
" />
<path d="M104.2410 66.2067
L104.3362 66.2067
" />
<path d="M104.3362 66.2067
L104.4315 66.6829
" />
<path d="M104.0982 65.7781
L104.7648 65.7781
" />
<path d="M104.1934 65.7781
L104.1458 65.7305
" />
<path d="M104.1458 65.7305
L104.0982 65.6352
" />
<path d="M104.0982 65.6352
L104.0982 65.4924
" />
<path d="M104.0982 65.4924
L104.1458 65.3971
" />
<path d="M104.1458 65.3971
L104.2410 65.3495
" />
<path d="M104.2410 65.3495
L104.7648 65.3495
" />
<path d="M104.7172 64.9210
L104.7648 64.8257
" />
<path d="M104.7648 64.8257
L104.7648 64.6352
" />
<path d="M104.7648 64.6352
L104.7172 64.5400
" />
<path d="M104.7172 64.5400
L104.6220 64.4924
" />
<path d="M104.6220 64.4924
L104.5743 64.4924
" />
<path d="M104.5743 64.4924
L104.4791 64.5400
" />
<path d="M104.4791 64.5400
L104.4315 64.6352
" />
<path d="M104.4315 64.6352
L104.4315 64.7781
" />
<path d="M104.4315 64.7781
L104.3839 64.8733
" />
<path d="M104.3839 64.8733
L104.2886 64.9210
" />
<path d="M104.2886 64.9210
L104.2410 64.9210
" />
<path d="M104.2410 64.9210
L104.1458 64.8733
" />
<path d="M104.1458 64.8733
L104.0982 64.7781
" />
<path d="M104.0982 64.7781
L104.0982 64.6352
" />
<path d="M104.0982 64.6352
L104.1458 64.5400
" />
<path d="M104.7172 63.6829
L104.7648 63.7781
" />
<path d="M104.7648 63.7781
L104.7648 63.9686
" />
<path d="M104.7648 63.9686
L104.7172 64.0638
" />
<path d="M104.7172 64.0638
L104.6220 64.1114
" />
<path d="M104.6220 64.1114
L104.2410 64.1114
" />
<path d="M104.2410 64.1114
L104.1458 64.0638
" />
<path d="M104.1458 64.0638
L104.0982 63.9686
" />
<path d="M104.0982 63.9686
L104.0982 63.7781
" />
<path d="M104.0982 63.7781
L104.1458 63.6829
" />
<path d="M104.1458 63.6829
L104.2410 63.6352
" />
<path d="M104.2410 63.6352
L104.3362 63.6352
" />
<path d="M104.3362 63.6352
L104.4315 64.1114
" />
<path d="M104.7648 62.6829
L104.7648 63.2543
" />
<path d="M104.7648 62.9686
L103.7648 62.9686
" />
<path d="M103.7648 62.9686
L103.9077 63.0638
" />
<path d="M103.9077 63.0638
L104.0029 63.1590
" />
<path d="M104.0029 63.1590
L104.0505 63.2543
" />
</g><text x="116.1900" y="46.8500"
textLength="10.0595" font-size="1.3333" lengthAdjust="spacingAndGlyphs"
text-anchor="middle" opacity="0">Solar_Panel1</text>
<g class="stroked-text"><desc>Solar_Panel1</desc>
<path d="M111.4757 46.7572
L111.6186 46.8048
" />
<path d="M111.6186 46.8048
L111.8567 46.8048
" />
<path d="M111.8567 46.8048
L111.9519 46.7572
" />
<path d="M111.9519 46.7572
L111.9995 46.7096
" />
<path d="M111.9995 46.7096
L112.0471 46.6143
" />
<path d="M112.0471 46.6143
L112.0471 46.5191
" />
<path d="M112.0471 46.5191
L111.9995 46.4239
" />
<path d="M111.9995 46.4239
L111.9519 46.3762
" />
<path d="M111.9519 46.3762
L111.8567 46.3286
" />
<path d="M111.8567 46.3286
L111.6662 46.2810
" />
<path d="M111.6662 46.2810
L111.5710 46.2334
" />
<path d="M111.5710 46.2334
L111.5233 46.1858
" />
<path d="M111.5233 46.1858
L111.4757 46.0905
" />
<path d="M111.4757 46.0905
L111.4757 45.9953
" />
<path d="M111.4757 45.9953
L111.5233 45.9001
" />
<path d="M111.5233 45.9001
L111.5710 45.8524
" />
<path d="M111.5710 45.8524
L111.6662 45.8048
" />
<path d="M111.6662 45.8048
L111.9043 45.8048
" />
<path d="M111.9043 45.8048
L112.0471 45.8524
" />
<path d="M112.6186 46.8048
L112.5233 46.7572
" />
<path d="M112.5233 46.7572
L112.4757 46.7096
" />
<path d="M112.4757 46.7096
L112.4281 46.6143
" />
<path d="M112.4281 46.6143
L112.4281 46.3286
" />
<path d="M112.4281 46.3286
L112.4757 46.2334
" />
<path d="M112.4757 46.2334
L112.5233 46.1858
" />
<path d="M112.5233 46.1858
L112.6186 46.1382
" />
<path d="M112.6186 46.1382
L112.7614 46.1382
" />
<path d="M112.7614 46.1382
L112.8567 46.1858
" />
<path d="M112.8567 46.1858
L112.9043 46.2334
" />
<path d="M112.9043 46.2334
L112.9519 46.3286
" />
<path d="M112.9519 46.3286
L112.9519 46.6143
" />
<path d="M112.9519 46.6143
L112.9043 46.7096
" />
<path d="M112.9043 46.7096
L112.8567 46.7572
" />
<path d="M112.8567 46.7572
L112.7614 46.8048
" />
<path d="M112.7614 46.8048
L112.6186 46.8048
" />
<path d="M113.5233 46.8048
L113.4281 46.7572
" />
<path d="M113.4281 46.7572
L113.3805 46.6620
" />
<path d="M113.3805 46.6620
L113.3805 45.8048
" />
<path d="M114.3329 46.8048
L114.3329 46.2810
" />
<path d="M114.3329 46.2810
L114.2852 46.1858
" />
<path d="M114.2852 46.1858
L114.1900 46.1382
" />
<path d="M114.1900 46.1382
L113.9995 46.1382
" />
<path d="M113.9995 46.1382
L113.9043 46.1858
" />
<path d="M114.3329 46.7572
L114.2376 46.8048
" />
<path d="M114.2376 46.8048
L113.9995 46.8048
" />
<path d="M113.9995 46.8048
L113.9043 46.7572
" />
<path d="M113.9043 46.7572
L113.8567 46.6620
" />
<path d="M113.8567 46.6620
L113.8567 46.5667
" />
<path d="M113.8567 46.5667
L113.9043 46.4715
" />
<path d="M113.9043 46.4715
L113.9995 46.4239
" />
<path d="M113.9995 46.4239
L114.2376 46.4239
" />
<path d="M114.2376 46.4239
L114.3329 46.3762
" />
<path d="M114.8090 46.8048
L114.8090 46.1382
" />
<path d="M114.8090 46.3286
L114.8567 46.2334
" />
<path d="M114.8567 46.2334
L114.9043 46.1858
" />
<path d="M114.9043 46.1858
L114.9995 46.1382
" />
<path d="M114.9995 46.1382
L115.0948 46.1382
" />
<path d="M115.1900 46.9001
L115.9519 46.9001
" />
<path d="M116.1900 46.8048
L116.1900 45.8048
" />
<path d="M116.1900 45.8048
L116.5710 45.8048
" />
<path d="M116.5710 45.8048
L116.6662 45.8524
" />
<path d="M116.6662 45.8524
L116.7138 45.9001
" />
<path d="M116.7138 45.9001
L116.7614 45.9953
" />
<path d="M116.7614 45.9953
L116.7614 46.1382
" />
<path d="M116.7614 46.1382
L116.7138 46.2334
" />
<path d="M116.7138 46.2334
L116.6662 46.2810
" />
<path d="M116.6662 46.2810
L116.5710 46.3286
" />
<path d="M116.5710 46.3286
L116.1900 46.3286
" />
<path d="M117.6186 46.8048
L117.6186 46.2810
" />
<path d="M117.6186 46.2810
L117.5710 46.1858
" />
<path d="M117.5710 46.1858
L117.4757 46.1382
" />
<path d="M117.4757 46.1382
L117.2852 46.1382
" />
<path d="M117.2852 46.1382
L117.1900 46.1858
" />
<path d="M117.6186 46.7572
L117.5233 46.8048
" />
<path d="M117.5233 46.8048
L117.2852 46.8048
" />
<path d="M117.2852 46.8048
L117.1900 46.7572
" />
<path d="M117.1900 46.7572
L117.1424 46.6620
" />
<path d="M117.1424 46.6620
L117.1424 46.5667
" />
<path d="M117.1424 46.5667
L117.1900 46.4715
" />
<path d="M117.1900 46.4715
L117.2852 46.4239
" />
<path d="M117.2852 46.4239
L117.5233 46.4239
" />
<path d="M117.5233 46.4239
L117.6186 46.3762
" />
<path d="M118.0948 46.1382
L118.0948 46.8048
" />
<path d="M118.0948 46.2334
L118.1424 46.1858
" />
<path d="M118.1424 46.1858
L118.2376 46.1382
" />
<path d="M118.2376 46.1382
L118.3805 46.1382
" />
<path d="M118.3805 46.1382
L118.4757 46.1858
" />
<path d="M118.4757 46.1858
L118.5233 46.2810
" />
<path d="M118.5233 46.2810
L118.5233 46.8048
" />
<path d="M119.3805 46.7572
L119.2852 46.8048
" />
<path d="M119.2852 46.8048
L119.0948 46.8048
" />
<path d="M119.0948 46.8048
L118.9995 46.7572
" />
<path d="M118.9995 46.7572
L118.9519 46.6620
" />
<path d="M118.9519 46.6620
L118.9519 46.2810
" />
<path d="M118.9519 46.2810
L118.9995 46.1858
" />
<path d="M118.9995 46.1858
L119.0948 46.1382
" />
<path d="M119.0948 46.1382
L119.2852 46.1382
" />
<path d="M119.2852 46.1382
L119.3805 46.1858
" />
<path d="M119.3805 46.1858
L119.4281 46.2810
" />
<path d="M119.4281 46.2810
L119.4281 46.3762
" />
<path d="M119.4281 46.3762
L118.9519 46.4715
" />
<path d="M119.9995 46.8048
L119.9043 46.7572
" />
<path d="M119.9043 46.7572
L119.8567 46.6620
" />
<path d="M119.8567 46.6620
L119.8567 45.8048
" />
<path d="M120.9043 46.8048
L120.3329 46.8048
" />
<path d="M120.6186 46.8048
L120.6186 45.8048
" />
<path d="M120.6186 45.8048
L120.5233 45.9477
" />
<path d="M120.5233 45.9477
L120.4281 46.0429
" />
<path d="M120.4281 46.0429
L120.3329 46.0905
" />
</g></g>
<g style="fill:none; 
stroke:#000000; stroke-width:0.1200; stroke-opacity:1; 
stroke-linecap:round; stroke-linejoin:round;">
<path d="M118.0100 62.7700
L118.3400 62.7700
" />
<path d="M118.0100 69.3100
L118.0100 62.7700
" />
<path d="M118.3400 69.3100
L118.0100 69.3100
" />
<path d="M120.4200 69.3100
L120.7500 69.3100
" />
<path d="M120.7500 62.7700
L120.4200 62.7700
" />
<path d="M120.7500 69.3100
L120.7500 62.7700
" />
<path d="M110.2900 63.3200
L110.6200 63.3200
" />
<path d="M110.2900 67.7400
L113.2300 67.7400
" />
<path d="M110.2900 67.8600
L113.2300 67.8600
" />
<path d="M110.2900 67.9800
L113.2300 67.9800
" />
<path d="M110.2900 68.7600
L110.2900 63.3200
" />
<path d="M110.6200 68.7600
L110.2900 68.7600
" />
<path d="M112.9000 68.7600
L113.2300 68.7600
" />
<path d="M113.2300 63.3200
L112.9000 63.3200
" />
<path d="M113.2300 68.7600
L113.2300 63.3200
" />
<path d="M126.0050 60.9400
L122.9150 60.9400
" />
<path d="M122.9152 60.9400 A2.9900 2.9900 0.0 0 0 124.4605 66.4900" />
<path d="M124.4595 66.4900 A2.9900 2.9900 0.0 0 0 126.0048 60.9400" />
<circle cx="124.4600" cy="63.5000" r="2.5000" /> 
<path d="M118.7900 71.5100
L114.9400 71.5100
" />
<path d="M114.9400 71.5100 A2.5570 2.5570 0.0 0 0 114.5476 72.0977" />
<path d="M114.4936 74.3088 A2.6000 2.6000 0.0 0 0 116.8500 75.8100" />
<path d="M119.1726 72.0880 A2.5795 2.5795 0.0 0 0 118.7900 71.5100" />
<path d="M116.8500 75.8100 A2.6000 2.6000 0.0 0 0 119.2064 74.3088" />
<path d="M104.1100 47.0400
L104.1100 59.6400
" />
<path d="M104.1100 59.6400
L114.4600 59.6400
" />
<path d="M114.4600 51.8400
L114.9600 52.1400
" />
<path d="M114.4600 57.2400
L114.4600 51.8400
" />
<path d="M114.4600 58.6900
L114.9600 58.9400
" />
<path d="M114.4600 59.6400
L114.4600 58.6900
" />
<path d="M114.9600 47.0400
L104.1100 47.0400
" />
<path d="M114.9600 52.1400
L114.9600 47.0400
" />
<path d="M114.9600 56.9900
L114.4600 57.2400
" />
<path d="M114.9600 57.0400
L114.9600 56.9900
" />
<path d="M114.9600 58.9400
L114.9600 57.0400
" />
<path d="M114.2000 62.7700
L114.2000 69.3100
" />
<path d="M114.2000 69.3100
L114.5300 69.3100
" />
<path d="M114.5300 62.7700
L114.2000 62.7700
" />
<path d="M116.6100 62.7700
L116.9400 62.7700
" />
<path d="M116.9400 62.7700
L116.9400 69.3100
" />
<path d="M116.9400 69.3100
L116.6100 69.3100
" />
<path d="M105.3100 62.7700
L105.6400 62.7700
" />
<path d="M105.3100 69.3100
L105.3100 62.7700
" />
<path d="M105.6400 69.3100
L105.3100 69.3100
" />
<path d="M107.7200 69.3100
L108.0500 69.3100
" />
<path d="M108.0500 62.7700
L107.7200 62.7700
" />
<path d="M108.0500 69.3100
L108.0500 62.7700
" />
<path d="M115.4600 47.0400
L115.4600 59.6400
" />
<path d="M115.4600 59.6400
L125.8100 59.6400
" />
<path d="M125.8100 51.8400
L126.3100 52.1400
" />
<path d="M125.8100 57.2400
L125.8100 51.8400
" />
<path d="M125.8100 58.6900
L126.3100 58.9400
" />
<path d="M125.8100 59.6400
L125.8100 58.6900
" />
<path d="M126.3100 47.0400
L115.4600 47.0400
" />
<path d="M126.3100 52.1400
L126.3100 47.0400
" />
<path d="M126.3100 56.9900
L125.8100 57.2400
" />
<path d="M126.3100 57.0400
L126.3100 56.9900
" />
<path d="M126.3100 58.9400
L126.3100 57.0400
" />
</g>
<g style="fill:#FFFFFF; fill-opacity:1.0000; stroke:none;">
<circle cx="119.3800" cy="69.8500" r="0.4000" /> 
</g>
<g style="fill:#FFFFFF; fill-opacity:1.0000; stroke:none;">
<circle cx="119.3800" cy="62.2300" r="0.4000" /> 
</g>
<g style="fill:#FFFFFF; fill-opacity:1.0000; stroke:none;">
<circle cx="111.7600" cy="69.8500" r="0.4000" /> 
</g>
<g style="fill:#FFFFFF; fill-opacity:1.0000; stroke:none;">
<circle cx="111.7600" cy="62.2300" r="0.4000" /> 
</g>
<g style="fill:#FFFFFF; fill-opacity:1.0000; stroke:none;">
<circle cx="124.4600" cy="62.2300" r="0.4000" /> 
</g>
<g style="fill:#FFFFFF; fill-opacity:1.0000; stroke:none;">
<circle cx="124.4600" cy="64.7700" r="0.4000" /> 
</g>
<g style="fill:#FFFFFF; fill-opacity:1.0000; stroke:none;">
<circle cx="119.3900" cy="73.2100" r="0.4000" /> 
</g>
<g style="fill:#FFFFFF; fill-opacity:1.0000; stroke:none;">
<circle cx="116.8500" cy="73.2100" r="0.4000" /> 
</g>
<g style="fill:#FFFFFF; fill-opacity:1.0000; stroke:none;">
<circle cx="114.3100" cy="73.2100" r="0.4000" /> 
</g>
<g style="fill:#FFFFFF; fill-opacity:1.0000; stroke:none;">
<circle cx="106.7600" cy="53.3400" r="0.4000" /> 
</g>
<g style="fill:#FFFFFF; fill-opacity:1.0000; stroke:none;">
<circle cx="111.7600" cy="53.3400" r="0.4000" /> 
</g>
<g style="fill:#FFFFFF; fill-opacity:1.0000; stroke:none;">
<circle cx="115.5700" cy="62.2300" r="0.4000" /> 
</g>
<g style="fill:#FFFFFF; fill-opacity:1.0000; stroke:none;">
<circle cx="115.5700" cy="69.8500" r="0.4000" /> 
</g>
<g style="fill:#FFFFFF; fill-opacity:1.0000; stroke:none;">
<circle cx="106.6800" cy="69.8500" r="0.4000" /> 
</g>
<g style="fill:#FFFFFF; fill-opacity:1.0000; stroke:none;">
<circle cx="106.6800" cy="62.2300" r="0.4000" /> 
</g>
<g style="fill:#FFFFFF; fill-opacity:1.0000; stroke:none;">
<circle cx="118.1100" cy="53.3400" r="0.4000" /> 
</g>
<g style="fill:#FFFFFF; fill-opacity:1.0000; stroke:none;">
<circle cx="123.1100" cy="53.3400" r="0.4000" /> 
<path style="fill:none; 
stroke:#000000; stroke-width:0.0500; stroke-opacity:1; 
stroke-linecap:round; stroke-linejoin:round;fill:none"
d="M 101.6000,51.0000
131.6000,51.0000
131.6000,76.0000
101.6000,76.0000
Z" /> 
</g> 
</svg>
